<?xml version="1.0" encoding="UTF-8" standalone="no"?>
<!-- Created with Inkscape (http://www.inkscape.org/) -->

<svg
   xmlns:dc="http://purl.org/dc/elements/1.1/"
   xmlns:cc="http://creativecommons.org/ns#"
   xmlns:rdf="http://www.w3.org/1999/02/22-rdf-syntax-ns#"
   xmlns:svg="http://www.w3.org/2000/svg"
   xmlns="http://www.w3.org/2000/svg"
   xmlns:sodipodi="http://sodipodi.sourceforge.net/DTD/sodipodi-0.dtd"
   xmlns:inkscape="http://www.inkscape.org/namespaces/inkscape"
   width="473mm"
   height="297mm"
   viewBox="0 0 473 297"
   version="1.1"
   id="svg8"
   inkscape:version="0.92.5 (2060ec1f9f, 2020-04-08)"
   sodipodi:docname="logo.svg">
  <defs
     id="defs2" />
  <sodipodi:namedview
     id="base"
     pagecolor="#ffffff"
     bordercolor="#666666"
     borderopacity="1.0"
     inkscape:pageopacity="0.0"
     inkscape:pageshadow="2"
     inkscape:zoom="0.25"
     inkscape:cx="1262.6472"
     inkscape:cy="553.13255"
     inkscape:document-units="mm"
     inkscape:current-layer="layer1"
     showgrid="false"
     inkscape:window-width="1352"
     inkscape:window-height="728"
     inkscape:window-x="6"
     inkscape:window-y="32"
     inkscape:window-maximized="0" />
  <metadata
     id="metadata5">
    <rdf:RDF>
      <cc:Work
         rdf:about="">
        <dc:format>image/svg+xml</dc:format>
        <dc:type
           rdf:resource="http://purl.org/dc/dcmitype/StillImage" />
        <dc:title></dc:title>
      </cc:Work>
    </rdf:RDF>
  </metadata>
  <g
     inkscape:label="Camada 1"
     inkscape:groupmode="layer"
     id="layer1">
    <g
       id="g1272"
       transform="translate(202.84539,21.944548)">
      <rect
         y="93.501221"
         x="-60.876717"
         height="22.001123"
         width="59.260517"
         id="rect1216"
         style="opacity:0.98999999;fill:#dcdcdc;fill-opacity:1;stroke:none;stroke-width:0.82381374;stroke-miterlimit:4;stroke-dasharray:none;stroke-opacity:1"
         transform="matrix(0.79738533,0.6034705,-0.61348362,0.78970745,0,0)" />
      <rect
         style="opacity:0.98999999;fill:#dcdcdc;fill-opacity:1;stroke:none;stroke-width:0.82381374;stroke-miterlimit:4;stroke-dasharray:none;stroke-opacity:1"
         id="rect1214"
         width="59.260517"
         height="22.001123"
         x="-66.137619"
         y="138.50667"
         transform="matrix(0.79738533,0.6034705,-0.61348362,0.78970745,0,0)" />
      <rect
         y="184.41135"
         x="-71.645195"
         height="22.001123"
         width="59.260517"
         id="rect1212"
         style="opacity:0.98999999;fill:#dcdcdc;fill-opacity:1;stroke:none;stroke-width:0.82381374;stroke-miterlimit:4;stroke-dasharray:none;stroke-opacity:1"
         transform="matrix(0.79738533,0.6034705,-0.61348362,0.78970745,0,0)" />
      <rect
         y="90.40844"
         x="74.85643"
         height="22.333496"
         width="28.779158"
         id="rect1210"
         style="opacity:0.98999999;fill:#dcdcdc;fill-opacity:1;stroke:none;stroke-width:1.1495918;stroke-miterlimit:4;stroke-dasharray:none;stroke-opacity:1"
         transform="matrix(0.63224018,0.77477246,-0.77577744,0.63100662,0,0)" />
      <rect
         style="opacity:0.98999999;fill:#dcdcdc;fill-opacity:1;stroke:none;stroke-width:1.1495918;stroke-miterlimit:4;stroke-dasharray:none;stroke-opacity:1"
         id="rect1208"
         width="28.779158"
         height="22.333496"
         x="78.924782"
         y="136.40987"
         transform="matrix(0.63224018,0.77477246,-0.77577744,0.63100662,0,0)" />
      <path
         inkscape:connector-curvature="0"
         id="path1248"
         d="m -378.94531,362.75391 c -1.04392,-0.003 -2.14402,0.20763 -3.30664,0.63476 -1.16263,0.42713 -2.38757,1.07139 -3.67774,1.9336 -1.29017,0.8622 -2.64571,1.94353 -4.07226,3.24609 -1.42656,1.30256 -2.92433,2.82603 -4.4961,4.57422 -1.87184,2.08194 -3.32745,3.99945 -4.36914,5.77539 -0.52084,0.88797 -0.9375,1.74117 -1.25195,2.56055 -0.31445,0.81937 -0.52596,1.60528 -0.63477,2.36132 -0.10881,0.75605 -0.11559,1.4817 -0.0195,2.17969 0.0961,0.69799 0.29552,1.36847 0.59571,2.01367 0.30018,0.64521 0.70154,1.26559 1.20507,1.86328 0.50354,0.59769 1.10833,1.17308 1.81446,1.72852 0.9661,0.75995 1.98163,1.45024 2.83984,1.95117 0.85821,0.50093 1.5591,0.8125 1.89453,0.8125 0.63341,0 1.42613,-0.22324 2.33008,-0.62695 0.90395,-0.40372 1.91844,-0.98707 3,-1.70703 2.16313,-1.43992 4.59019,-3.42541 6.90625,-5.60547 2.31606,-2.18006 4.52243,-4.55497 6.24805,-6.77539 0.86281,-1.11021 1.60387,-2.18278 2.17968,-3.17188 0.57582,-0.98909 0.98575,-1.89527 1.18165,-2.67578 0.27092,-1.07954 0.26673,-2.22897 0.0391,-3.36328 -0.22768,-1.1343 -0.67863,-2.25289 -1.30078,-3.27148 -0.62216,-1.0186 -1.41562,-1.93751 -2.32813,-2.66993 -0.9125,-0.73241 -1.94424,-1.27892 -3.04297,-1.55468 -0.56005,-0.14056 -1.13785,-0.21136 -1.73437,-0.21289 z"
         style="opacity:0.98999999;fill:#fd8794;fill-opacity:1;stroke:none;stroke-width:2.58649302;stroke-miterlimit:4;stroke-dasharray:none;stroke-opacity:1"
         transform="scale(0.26458333)" />
      <path
         sodipodi:nodetypes="ccccccccssscccsscccccsccsccccccccccsc"
         inkscape:connector-curvature="0"
         id="path1246"
         d="m -441.25977,352.43945 c -2.88845,-0.016 -5.53546,0.208 -7.97656,0.6875 -2.44109,0.47951 -4.67712,1.2148 -6.74219,2.22461 -2.06507,1.00982 -3.95836,2.29418 -5.71875,3.86914 -1.76038,1.57497 -3.38702,3.44029 -4.91406,5.61524 -0.92994,1.32452 -1.64827,2.40405 -2.20312,3.43554 -0.55486,1.0315 -0.94587,2.01585 -1.22071,3.14454 -0.27483,1.12868 -0.43355,2.40343 -0.52343,4.01953 -0.0899,1.6161 -0.11133,3.57268 -0.11133,6.0664 0,2.28611 0.0368,4.18319 0.13867,5.83985 0.10186,1.65665 0.26861,3.07242 0.53125,4.39648 0.26264,1.32406 0.62117,2.55737 1.10352,3.8457 0.48234,1.28834 1.08863,2.63217 1.8496,4.18164 0.81343,1.65625 1.75718,3.29214 2.8125,4.89258 1.05533,1.60045 2.22205,3.16626 3.48047,4.67969 1.25842,1.51343 2.60854,2.97395 4.03125,4.36914 1.42272,1.3952 2.91859,2.72495 4.4668,3.9707 1.54821,1.24576 3.1483,2.40757 4.7832,3.47266 1.63491,1.0651 3.30353,2.03349 4.98633,2.88672 1.6828,0.85322 3.38037,1.59103 5.07227,2.20117 1.69189,0.61014 3.37882,1.09189 5.04101,1.42774 1.90732,0.38537 3.80462,0.60892 5.69141,0.67187 1.88679,0.063 3.76258,-0.0357 5.62695,-0.29492 1.86438,-0.25926 3.71852,-0.67851 5.5586,-1.25977 1.84007,-0.58125 3.66658,-1.32352 5.48047,-2.22656 1.94708,-0.96935 3.74248,-2.17621 5.35742,-3.57617 1.61493,-1.39997 3.0488,-2.99346 4.27148,-4.73828 1.22269,-1.74483 2.23553,-3.64059 3.00586,-5.64453 0.77033,-2.00395 1.29876,-4.11566 1.55664,-6.29297 0.18651,-1.57481 0.31183,-2.80031 0.33203,-3.81641 0.0202,-1.01609 -0.0637,-1.82242 -0.29883,-2.55859 -6.84954,-9.46529 -7.65743,-11.75549 -6.20507,-23.41407 L -409,367.36523 c -2.47043,-2.522 -4.96684,-4.71116 -7.51172,-6.57812 -2.54487,-1.86696 -5.13811,-3.41152 -7.79883,-4.64258 -2.66071,-1.23106 -5.38907,-2.14938 -8.20703,-2.76367 -2.81795,-0.61429 -5.72559,-0.92476 -8.74219,-0.94141 z"
         style="opacity:0.98999999;fill:#fd8794;fill-opacity:1;stroke:none;stroke-width:2.58649302;stroke-miterlimit:4;stroke-dasharray:none;stroke-opacity:1"
         transform="scale(0.26458333)" />
      <path
         inkscape:connector-curvature="0"
         id="path1244"
         d="m -293.45117,624.92383 c -2.36175,-4.64983 -4.83405,-9.31682 -7.4961,-14.00391 -2.92344,-5.14734 -6.02166,-10.31252 -9.28125,-15.47851 -3.25958,-5.166 -6.67964,-10.33292 -10.24804,-15.49024 -3.5684,-5.15732 -7.28487,-10.30446 -11.13477,-15.42578 -3.84989,-5.12132 -7.83343,-10.2174 -11.9375,-15.27539 -4.10407,-5.05799 -8.32923,-10.07759 -12.66015,-15.04492 -4.33092,-4.96733 -8.76838,-9.88308 -13.29883,-14.73242 -4.53045,-4.84935 -9.15282,-9.63191 -13.85547,-14.33594 -4.70266,-4.70403 -9.4845,-9.32995 -14.33203,-13.86133 -4.84754,-4.53138 -9.76147,-8.96938 -14.72657,-13.30078 -4.96508,-4.33141 -9.98177,-8.55606 -15.0371,-12.66016 -5.05534,-4.1041 -10.14933,-8.08608 -15.26758,-11.93554 -5.11825,-3.84947 -10.26023,-7.56531 -15.41406,-11.13282 -5.15385,-3.5675 -10.31836,-6.98788 -15.48047,-10.24609 -2.71132,-1.71132 -5.41514,-3.25115 -8.12305,-4.87109 l 160.1582,226.67968 z"
         style="opacity:0.98999999;fill:#fd8794;fill-opacity:1;stroke:none;stroke-width:2.58649302;stroke-miterlimit:4;stroke-dasharray:none;stroke-opacity:1"
         transform="scale(0.26458333)" />
      <path
         sodipodi:nodetypes="cscccccccsccccccccsccscccccsscccssscccccccccccccccssccsscccccccsccccc"
         inkscape:connector-curvature="0"
         id="path1242"
         d="m -441.25977,352.43945 c 3.0166,0.0166 5.92424,0.32712 8.74219,0.94141 2.81796,0.61429 5.54632,1.53261 8.20703,2.76367 2.66072,1.23106 5.25396,2.77562 7.79883,4.64258 2.54488,1.86696 5.04129,4.05612 7.51172,6.57812 l 7.00391,7.15039 14.52929,7.19727 c -0.20092,1.70963 -7.71558,3.02763 -7.74804,4.10742 -0.0325,1.0798 17.4179,-2.32861 17.64648,-1.57226 0.22862,0.75634 -4.63896,4.92671 -4.05664,5.66601 0.58232,0.7393 -1.02865,-1.02864 0,0 1.01271,1.01272 1.42841,4.39386 2.00781,5.12891 0.57941,0.73505 -6.28392,2.15054 -6.04883,2.88672 0.2351,0.73617 -6.55596,1.855 -6.57617,2.87109 -0.0202,1.0161 -3.39552,1.9291 -3.58203,3.50391 -0.25788,2.17731 -0.78631,4.28902 -1.55664,6.29297 -0.77033,2.00394 -1.78317,3.8997 -3.00586,5.64453 -1.22268,1.74482 -2.65655,3.33831 -4.27148,4.73828 -1.61494,1.39996 -3.41034,2.60682 -5.35742,3.57617 -1.81389,0.90304 -3.6404,1.64531 -5.48047,2.22656 -1.84008,0.58126 -3.69422,1.00051 -5.5586,1.25977 -1.86437,0.25925 -3.74016,0.35787 -5.62695,0.29492 -1.88679,-0.063 -3.78409,-0.2865 -5.69141,-0.67187 -1.66219,-0.33585 -3.34912,-0.8176 -5.04101,-1.42774 -1.6919,-0.61014 -3.38947,-1.34795 -5.07227,-2.20117 -1.6828,-0.85323 -3.35142,-1.82162 -4.98633,-2.88672 -1.6349,-1.06509 -3.23499,-2.2269 -4.7832,-3.47266 -1.54821,-1.24575 -3.04408,-2.5755 -4.4668,-3.9707 -1.42271,-1.39519 -2.77283,-2.85571 -4.03125,-4.36914 -1.25842,-1.51343 -2.42514,-3.07924 -3.48047,-4.67969 -1.05532,-1.60044 -1.99907,-3.23633 -2.8125,-4.89258 -0.76097,-1.54947 -1.36726,-2.8933 -1.8496,-4.18164 -0.48235,-1.28833 -0.84088,-2.52164 -1.10352,-3.8457 -0.26264,-1.32406 -0.42939,-2.73983 -0.53125,-4.39648 -0.10186,-1.65666 -0.13867,-3.55374 -0.13867,-5.83985 0,-2.49372 0.0214,-4.4503 0.11133,-6.0664 0.0899,-1.6161 0.2486,-2.89085 0.52343,-4.01953 0.27484,-1.12869 0.66585,-2.11304 1.22071,-3.14454 0.55485,-1.03149 1.27318,-2.11102 2.20312,-3.43554 1.52704,-2.17495 3.15368,-4.04027 4.91406,-5.61524 1.76039,-1.57496 3.65368,-2.85932 5.71875,-3.86914 2.06507,-1.00981 4.3011,-1.7451 6.74219,-2.22461 2.4411,-0.4795 5.08811,-0.70346 7.97656,-0.6875 z m 62.31446,10.31446 c 0.59652,0.002 1.17432,0.0723 1.73437,0.21289 1.09873,0.27576 2.13047,0.82227 3.04297,1.55468 0.91251,0.73242 1.70597,1.65133 2.32813,2.66993 0.62215,1.01859 1.0731,2.13718 1.30078,3.27148 0.22767,1.13431 0.23186,2.28374 -0.0391,3.36328 -0.1959,0.78051 -0.60583,1.68669 -1.18165,2.67578 -0.57581,0.9891 -1.31687,2.06167 -2.17968,3.17188 -1.72562,2.22042 -3.93199,4.59533 -6.24805,6.77539 -2.31606,2.18006 -4.74312,4.16555 -6.90625,5.60547 -1.08156,0.71996 -2.09605,1.30331 -3,1.70703 -0.90395,0.40371 -1.69667,0.62695 -2.33008,0.62695 -0.33543,0 -1.03632,-0.31157 -1.89453,-0.8125 -0.85821,-0.50093 -1.87374,-1.19122 -2.83984,-1.95117 -0.70613,-0.55544 -1.31092,-1.13083 -1.81446,-1.72852 -0.50353,-0.59769 -0.90489,-1.21807 -1.20507,-1.86328 -0.30019,-0.6452 -0.49964,-1.31568 -0.59571,-2.01367 -0.0961,-0.69799 -0.0893,-1.42364 0.0195,-2.17969 0.10881,-0.75604 0.32032,-1.54195 0.63477,-2.36132 0.31445,-0.81938 0.73111,-1.67258 1.25195,-2.56055 1.04169,-1.77594 2.4973,-3.69345 4.36914,-5.77539 1.57177,-1.74819 3.06954,-3.27166 4.4961,-4.57422 1.42655,-1.30256 2.78209,-2.38389 4.07226,-3.24609 1.29017,-0.86221 2.51511,-1.50647 3.67774,-1.9336 1.16262,-0.42713 2.26272,-0.63744 3.30664,-0.63476 z"
         style="opacity:0.98999999;fill:#fd8794;fill-opacity:1;stroke:none;stroke-width:2.58649302;stroke-miterlimit:4;stroke-dasharray:none;stroke-opacity:1"
         transform="scale(0.26458333)" />
      <path
         inkscape:connector-curvature="0"
         id="rect315"
         d="m -395.15039,264.99414 -29.94531,30.74219 c 1.56031,0.41483 2.97344,0.64186 4.62695,1.17187 4.02234,1.28932 8.32982,2.92049 12.96289,4.9043 4.63307,1.98381 9.59222,4.32013 14.91992,7.01758 5.29359,2.68018 10.61026,5.55701 15.93555,8.61523 5.32529,3.05823 10.65908,6.29745 15.98633,9.70313 5.32725,3.40568 10.64781,6.97863 15.94726,10.70117 0.72428,0.50876 1.43864,1.07162 2.16211,1.58594 z"
         style="opacity:0.98999999;fill:#fd8794;fill-opacity:1;stroke:none;stroke-width:2.58649302;stroke-miterlimit:4;stroke-dasharray:none;stroke-opacity:1"
         transform="scale(0.26458333)" />
      <path
         inkscape:connector-curvature="0"
         id="path1196"
         d="m -250.44727,492.08984 c -0.56411,0.004 -1.12233,0.0696 -1.66211,0.20508 -0.7805,0.1959 -1.68674,0.60578 -2.67578,1.18164 -0.98904,0.57587 -2.06175,1.31679 -3.17187,2.17969 -2.22024,1.7258 -4.59362,3.93369 -6.77344,6.25 -2.17982,2.31631 -4.16573,4.74294 -5.60547,6.90625 -0.71987,1.08165 -1.30337,2.096 -1.70703,3 -0.40366,0.904 -0.62695,1.69668 -0.62695,2.33008 0,0.33543 0.31157,1.03486 0.8125,1.89258 0.50093,0.85772 1.19122,1.87374 1.95117,2.83984 0.55544,0.70613 1.13088,1.31092 1.72852,1.81445 0.59763,0.50354 1.21816,0.9049 1.86328,1.20508 0.64511,0.30018 1.31384,0.49964 2.01172,0.5957 0.69787,0.0961 1.42376,0.0893 2.17968,-0.0195 0.75593,-0.10881 1.54207,-0.32031 2.36133,-0.63476 0.81926,-0.31445 1.67267,-0.73111 2.56055,-1.25196 1.77576,-1.04169 3.69345,-2.49729 5.77539,-4.36914 1.99792,-1.79629 3.7027,-3.49412 5.11914,-5.10156 1.41644,-1.60744 2.54394,-3.12485 3.38672,-4.55664 0.84277,-1.43179 1.40082,-2.77948 1.67773,-4.04883 0.27692,-1.26934 0.27332,-2.45997 -0.008,-3.58008 -0.24129,-0.96138 -0.69008,-1.87163 -1.28906,-2.69531 -0.59899,-0.82367 -1.34888,-1.56145 -2.19141,-2.17773 -0.84253,-0.61628 -1.77806,-1.11002 -2.75,-1.44922 -0.97194,-0.3392 -1.97959,-0.52318 -2.9668,-0.51563 z"
         style="fill:#e07656;stroke-width:1.33333337"
         transform="scale(0.26458333)" />
      <path
         inkscape:connector-curvature="0"
         id="path1190"
         d="m -343.71094,422.31641 c -1.1473,0.005 -2.33536,0.27334 -3.51953,0.82421 -1.18417,0.55088 -2.36444,1.38398 -3.5,2.51954 -0.97116,0.97115 -1.72476,2.09317 -2.26172,3.38672 -0.53695,1.29354 -0.85743,2.75821 -0.96289,4.41796 -0.10546,1.65976 0.005,3.51421 0.32813,5.58399 0.32334,2.06977 0.85994,4.3553 1.60937,6.8789 0.47217,1.58998 1.03944,3.1404 1.69531,4.64454 0.65587,1.50413 1.40102,2.96135 2.22852,4.36718 0.8275,1.40583 1.73755,2.75963 2.72461,4.05469 0.98706,1.29506 2.05099,2.5313 3.18555,3.70313 1.13455,1.17183 2.33939,2.28027 3.60937,3.3164 1.26998,1.03613 2.6047,2.0007 3.99805,2.88867 1.39334,0.88797 2.84497,1.69844 4.34961,2.42578 1.50463,0.72735 3.06215,1.37153 4.66601,1.92579 2.53084,0.87459 4.89534,1.51301 7.08203,1.91601 2.18669,0.403 4.1958,0.56963 6.01368,0.50196 1.81787,-0.0677 3.44474,-0.36883 4.86914,-0.90626 1.42439,-0.53742 2.64609,-1.31015 3.65234,-2.3164 0.82586,-0.82586 1.4918,-1.67536 2.00586,-2.5332 0.51406,-0.85785 0.87691,-1.72326 1.09375,-2.58008 0.21684,-0.85682 0.28847,-1.70651 0.22266,-2.5293 -0.0658,-0.82279 -0.26964,-1.61925 -0.60352,-2.375 -0.33388,-0.75575 -0.7974,-1.4693 -1.38477,-2.125 -0.58736,-0.6557 -1.29872,-1.2547 -2.125,-1.77734 -0.82627,-0.52264 -1.76774,-0.9696 -2.81835,-1.32618 -1.05062,-0.35657 -2.21034,-0.62179 -3.47071,-0.77929 -2.47055,-0.30872 -4.76562,-0.80089 -6.86914,-1.46485 -2.10351,-0.66395 -4.01478,-1.49916 -5.7168,-2.49804 -1.70201,-0.99889 -3.19489,-2.1611 -4.46093,-3.47461 -1.26605,-1.31352 -2.30595,-2.77888 -3.10157,-4.38672 -0.75461,-1.52504 -1.5295,-3.62044 -2.16992,-5.76953 -0.64041,-2.14909 -1.14635,-4.35186 -1.36328,-6.08789 -0.20671,-1.65423 -0.5998,-3.13484 -1.14062,-4.42383 -0.54083,-1.28899 -1.22903,-2.38656 -2.0293,-3.27734 -0.80027,-0.89079 -1.71222,-1.57358 -2.69727,-2.03321 -0.98504,-0.45963 -2.04352,-0.6959 -3.13867,-0.6914 z"
         style="fill:#e07656;stroke-width:1.33333337"
         transform="scale(0.26458333)" />
      <path
         inkscape:connector-curvature="0"
         id="path1188"
         d="m -343.71094,422.31641 c 1.09515,-0.005 2.15363,0.23177 3.13867,0.6914 0.98505,0.45963 1.897,1.14242 2.69727,2.03321 0.80027,0.89078 1.48847,1.98835 2.0293,3.27734 0.54082,1.28899 0.93391,2.7696 1.14062,4.42383 0.21693,1.73603 0.72287,3.9388 1.36328,6.08789 0.64042,2.14909 1.41531,4.24449 2.16992,5.76953 0.79562,1.60784 1.83552,3.0732 3.10157,4.38672 1.26604,1.31351 2.75892,2.47572 4.46093,3.47461 1.70202,0.99888 3.61329,1.83409 5.7168,2.49804 2.10352,0.66396 4.39859,1.15613 6.86914,1.46485 1.26037,0.1575 2.42009,0.42272 3.47071,0.77929 1.05061,0.35658 1.99208,0.80354 2.81835,1.32618 0.82628,0.52264 1.53764,1.12164 2.125,1.77734 0.58737,0.6557 1.05089,1.36925 1.38477,2.125 0.33388,0.75575 0.53771,1.55221 0.60352,2.375 0.0658,0.82279 -0.006,1.67248 -0.22266,2.5293 -0.21684,0.85682 -0.57969,1.72223 -1.09375,2.58008 -0.51406,0.85784 -1.18,1.70734 -2.00586,2.5332 -1.00625,1.00625 -2.22795,1.77898 -3.65234,2.3164 -1.4244,0.53743 -3.05127,0.83858 -4.86914,0.90626 -1.81788,0.0677 -3.82699,-0.099 -6.01368,-0.50196 -2.18669,-0.403 -4.55119,-1.04142 -7.08203,-1.91601 -1.60386,-0.55426 -3.16138,-1.19844 -4.66601,-1.92579 -1.50464,-0.72734 -2.95627,-1.53781 -4.34961,-2.42578 -1.39335,-0.88797 -2.72807,-1.85254 -3.99805,-2.88867 -1.26998,-1.03613 -2.47482,-2.14457 -3.60937,-3.3164 -1.13456,-1.17183 -2.19849,-2.40807 -3.18555,-3.70313 -0.98706,-1.29506 -1.89711,-2.64886 -2.72461,-4.05469 -0.8275,-1.40583 -1.57265,-2.86305 -2.22852,-4.36718 -0.65587,-1.50414 -1.22314,-3.05456 -1.69531,-4.64454 -0.74943,-2.5236 -1.28603,-4.80913 -1.60937,-6.8789 -0.32334,-2.06978 -0.43359,-3.92423 -0.32813,-5.58399 0.10546,-1.65975 0.42594,-3.12442 0.96289,-4.41796 0.53696,-1.29355 1.29056,-2.41557 2.26172,-3.38672 1.13556,-1.13556 2.31583,-1.96866 3.5,-2.51954 1.18417,-0.55087 2.37223,-0.81951 3.51953,-0.82421 z"
         style="fill:#e07656;stroke-width:1.33333337"
         transform="scale(0.26458333)" />
      <path
         inkscape:connector-curvature="0"
         id="path1184"
         d="m -378.94531,362.75391 c -1.04392,-0.003 -2.14402,0.20763 -3.30664,0.63476 -1.16263,0.42713 -2.38757,1.07139 -3.67774,1.9336 -1.29017,0.8622 -2.64571,1.94353 -4.07226,3.24609 -1.42656,1.30256 -2.92433,2.82603 -4.4961,4.57422 -1.87184,2.08194 -3.32745,3.99945 -4.36914,5.77539 -0.52084,0.88797 -0.9375,1.74117 -1.25195,2.56055 -0.31445,0.81937 -0.52596,1.60528 -0.63477,2.36132 -0.10881,0.75605 -0.11559,1.4817 -0.0195,2.17969 0.0961,0.69799 0.29552,1.36847 0.59571,2.01367 0.30018,0.64521 0.70154,1.26559 1.20507,1.86328 0.50354,0.59769 1.10833,1.17308 1.81446,1.72852 0.9661,0.75995 1.98163,1.45024 2.83984,1.95117 0.85821,0.50093 1.5591,0.8125 1.89453,0.8125 0.63341,0 1.42613,-0.22324 2.33008,-0.62695 0.90395,-0.40372 1.91844,-0.98707 3,-1.70703 2.16313,-1.43992 4.59019,-3.42541 6.90625,-5.60547 2.31606,-2.18006 4.52243,-4.55497 6.24805,-6.77539 0.86281,-1.11021 1.60387,-2.18278 2.17968,-3.17188 0.57582,-0.98909 0.98575,-1.89527 1.18165,-2.67578 0.27093,-1.07954 0.26673,-2.22897 0.0391,-3.36328 -0.22768,-1.1343 -0.67863,-2.25289 -1.30078,-3.27148 -0.62216,-1.0186 -1.41562,-1.93751 -2.32813,-2.66993 -0.9125,-0.73241 -1.94424,-1.27892 -3.04297,-1.55468 -0.56005,-0.14056 -1.13785,-0.21136 -1.73437,-0.21289 z"
         style="fill:#e07656;stroke-width:1.33333337"
         transform="scale(0.26458333)" />
      <path
         inkscape:connector-curvature="0"
         id="path1180"
         d="m -317.04102,170.31055 c -1.83114,-0.0182 -3.64189,0.10039 -5.44726,0.36133 -1.80537,0.26093 -3.60467,0.66446 -5.41406,1.21679 -1.80939,0.55234 -3.62946,1.25337 -5.47266,2.10938 -1.8432,0.856 -3.71039,1.86712 -5.61719,3.03906 -1.9068,1.17194 -3.85332,2.50375 -5.85351,4.00391 -2.0002,1.50015 -4.05436,3.16912 -6.17774,5.00976 -4.24676,3.68129 -8.76924,8.055 -13.6875,13.17188 -2.95603,3.07541 -5.78375,6.23163 -8.46484,9.43359 -2.68109,3.20196 -5.21577,6.44977 -7.58399,9.70508 -2.36821,3.25531 -4.57049,6.51845 -6.58789,9.7539 -2.0174,3.23546 -3.84985,6.44355 -5.47851,9.58594 -1.62866,3.1424 -3.05388,6.21918 -4.25586,9.19531 -1.20199,2.97614 -2.18059,5.85123 -2.91797,8.5879 -0.73738,2.73666 -1.23391,5.33577 -1.46875,7.75976 -0.23484,2.42399 -0.20798,4.67283 0.0977,6.71094 0.44681,2.97957 0.90876,5.38267 1.52929,7.40234 0.31027,1.00984 0.6608,1.92386 1.06836,2.76563 0.40757,0.84176 0.87133,1.61236 1.41211,2.33398 1.08157,1.44325 2.46696,2.69307 4.29688,3.94336 1.82992,1.25029 4.1051,2.50061 6.9707,3.94141 5.28214,2.6558 10.56474,5.47312 15.83789,8.4414 5.27315,2.96829 10.53612,6.08767 15.78125,9.34961 5.24513,3.26194 10.47183,6.66636 15.66992,10.20313 5.1981,3.53677 10.36797,7.20527 15.5,10.99804 5.13204,3.79278 10.22649,7.71029 15.27344,11.74024 5.04695,4.02995 10.04739,8.17357 14.99023,12.42187 4.94285,4.24831 9.82873,8.601 14.64844,13.04883 4.81971,4.44784 9.57244,8.99061 14.25,13.61914 4.67756,4.62854 9.27854,9.3424 13.79492,14.13282 4.51639,4.79041 8.94897,9.65637 13.28516,14.58984 4.33619,4.93347 8.57593,9.93449 12.71289,14.99219 4.13697,5.05769 8.17112,10.17284 12.08984,15.33593 3.91873,5.1631 7.72285,10.37338 11.4043,15.62305 3.68146,5.24967 7.2389,10.53805 10.66406,15.85547 3.42517,5.31742 6.71734,10.6649 9.86719,16.03125 3.14985,5.36635 6.15816,10.75199 9.01367,16.14844 1.80193,3.40534 3.26624,6.11369 4.51367,8.28711 1.24744,2.17342 2.27741,3.81217 3.20899,5.07812 0.93157,1.26595 1.76481,2.15885 2.61914,2.8418 0.85433,0.68294 1.73038,1.15568 2.74609,1.58008 1.92008,0.80226 3.97622,1.43023 6.11719,1.88281 2.14097,0.45258 4.36629,0.72974 6.62695,0.82812 2.26067,0.0984 4.55679,0.0181 6.83594,-0.24218 2.27916,-0.26032 4.54183,-0.70069 6.73828,-1.32422 1.75639,-0.49861 3.58964,-1.12749 5.48438,-1.875 1.89474,-0.74751 3.85036,-1.61362 5.85351,-2.58399 4.0063,-1.94073 8.20067,-4.30061 12.46094,-6.97656 4.26027,-2.67594 8.586641,-5.66826 12.861329,-8.87109 4.274689,-3.20284 8.497329,-6.61726 12.546875,-10.13867 4.049547,-3.52142 7.926872,-7.14959 11.511719,-10.78126 3.584847,-3.63166 6.877223,-7.26716 9.757813,-10.80078 2.880589,-3.53361 5.348382,-6.96611 7.285156,-10.19336 0.968387,-1.61362 1.804671,-3.17586 2.492187,-4.67382 0.687517,-1.49797 1.226815,-2.93084 1.603516,-4.28711 0.571464,-2.0575 0.95662,-4.24222 1.15625,-6.52735 0.19963,-2.28512 0.213706,-4.67019 0.04492,-7.13281 -0.168784,-2.46262 -0.52091,-5.00181 -1.054688,-7.5918 -0.533778,-2.58998 -1.24918,-5.23122 -2.144531,-7.89843 -1.228951,-3.66099 -2.7631,-7.66141 -4.554687,-11.9043 -1.791587,-4.2429 -3.840733,-8.72789 -6.101563,-13.36133 -2.260829,-4.63344 -4.732461,-9.41543 -7.36914,-14.24805 -2.63668,-4.83261 -5.438286,-9.71622 -8.357422,-14.55664 -2.816901,-4.67091 -5.378054,-9.28297 -7.234375,-12.95117 -0.928161,-1.8341 -1.679155,-3.43222 -2.199219,-4.68359 -0.520064,-1.25138 -0.808594,-2.15624 -0.808594,-2.60352 0,-1.28866 0.265152,-2.42681 0.736328,-3.40234 0.471177,-0.97553 1.148379,-1.78844 1.96875,-2.42774 l -13.513672,-18.67187 c -0.600272,0.33838 -1.251162,0.60315 -1.945312,0.7832 -0.69415,0.18005 -1.43156,0.27539 -2.20312,0.27539 -1.04815,0 -1.98895,-0.13158 -2.96289,-0.51367 -0.97395,-0.38209 -1.98015,-1.01386 -3.16407,-2.01953 -1.18392,-1.00567 -2.54458,-2.38511 -4.22265,-4.25586 -1.67807,-1.87074 -3.67446,-4.23363 -6.13086,-7.21094 -6.37816,-7.73072 -13.1003,-15.35305 -20.0918,-22.81054 -6.9915,-7.4575 -14.2522,-14.74975 -21.71094,-21.82422 -7.45874,-7.07447 -15.11464,-13.93008 -22.89453,-20.51172 -7.77989,-6.58164 -15.68373,-12.89014 -23.63867,-18.86914 -7.95494,-5.97901 -15.96142,-11.62797 -23.94531,-16.89453 -7.9839,-5.26657 -15.94575,-10.14942 -23.8125,-14.59375 -3.93338,-2.22217 -7.84205,-4.33602 -11.71875,-6.33203 -3.8767,-1.99602 -7.72168,-3.87472 -11.52344,-5.63086 -3.80176,-1.75615 -7.56098,-3.39003 -11.26953,-4.89258 -3.70855,-1.50255 -7.3658,-2.87415 -10.96289,-4.10938 -2.72743,-0.93658 -5.34742,-1.65915 -7.89649,-2.15429 -2.54907,-0.49515 -5.02722,-0.76287 -7.46875,-0.78711 z"
         style="fill:#e07656;stroke-width:1.33333337"
         transform="scale(0.26458333)" />
      <rect
         y="180.52693"
         x="84.52784"
         height="22.333496"
         width="28.779158"
         id="rect1206"
         style="opacity:0.98999999;fill:#dcdcdc;fill-opacity:1;stroke:none;stroke-width:1.1495918;stroke-miterlimit:4;stroke-dasharray:none;stroke-opacity:1"
         transform="matrix(0.63224018,0.77477246,-0.77577744,0.63100662,0,0)" />
      <path
         sodipodi:nodetypes="cscscsccccsccccscccssssccsccccsscscccccsccsccscsscsscccscscccssscssssscccscsscsssccccccsccccsccccssccccccccc"
         inkscape:connector-curvature="0"
         id="path1182"
         d="m -441.52539,293.20508 c -2.0351,0.0281 -3.98043,0.20081 -5.84961,0.51367 -1.86918,0.31286 -3.66221,0.76591 -5.39062,1.35742 -2.39308,0.81896 -4.97799,2.07128 -7.69727,3.69336 -2.71928,1.62208 -5.57344,3.61424 -8.50391,5.91406 -2.93047,2.29983 -5.93818,4.90756 -8.96484,7.75977 -3.02666,2.85221 -6.07223,5.9493 -9.08008,9.22852 -3.00785,3.27921 -5.97753,6.73944 -8.85156,10.32031 -2.87403,3.58086 -5.65213,7.28192 -8.27734,11.03906 -2.62522,3.75714 -5.09799,7.57085 -7.35938,11.37891 -2.26139,3.80805 -4.31119,7.61015 -6.09375,11.34375 -1.16494,2.43999 -2.06391,4.38366 -2.75781,6.08789 -0.6939,1.70422 -1.18362,3.16857 -1.52539,4.65429 -0.34178,1.48572 -0.53595,2.99286 -0.64453,4.77735 -0.10859,1.78448 -0.13069,3.84674 -0.125,6.44726 0.009,4.06533 0.10611,7.24776 0.50781,9.86524 0.20085,1.30874 0.47713,2.47673 0.85742,3.54297 0.38029,1.06623 0.8647,2.03023 1.47852,2.93359 0.61381,0.90336 1.35638,1.74628 2.25781,2.56641 0.90143,0.82012 1.95998,1.61707 3.20312,2.43359 2.48629,1.63305 5.711,3.33909 9.88868,5.43555 5.09669,2.55764 10.22412,5.30497 15.36718,8.22656 5.14307,2.92159 10.30273,6.01718 15.46485,9.27539 5.16211,3.25821 10.32662,6.67859 15.48047,10.24609 5.15384,3.56751 10.29581,7.28335 15.41406,11.13282 5.11825,3.84946 10.21224,7.83144 15.26758,11.93554 5.05533,4.1041 10.07201,8.32875 15.0371,12.66016 4.9651,4.3314 9.87903,8.7694 14.72657,13.30078 4.84753,4.53138 9.62937,9.1573 14.33203,13.86133 4.70265,4.70403 9.32502,9.48659 13.85547,14.33594 4.53045,4.84934 8.96791,9.76509 13.29883,14.73242 4.33092,4.96733 8.55608,9.98693 12.66015,15.04492 4.10407,5.05799 8.08761,10.15407 11.9375,15.27539 3.8499,5.12132 7.56637,10.26846 11.13477,15.42578 3.5684,5.15732 6.98846,10.32424 10.24804,15.49024 3.25959,5.16599 6.35781,10.33117 9.28125,15.47851 2.92345,5.14734 5.67245,10.27756 8.23243,15.37891 1.53042,3.04974 2.7585,5.44204 3.81836,7.35156 1.05985,1.90952 1.9511,3.33573 2.80859,4.45508 0.85749,1.11934 1.68214,1.93213 2.60547,2.61133 0.92333,0.6792 1.94575,1.22536 3.20312,1.81445 1.12544,0.52729 2.1703,0.94958 3.23828,1.2793 1.06799,0.32971 2.15898,0.56726 3.37696,0.72656 2.43596,0.3186 5.3795,0.32311 9.66015,0.12305 2.22784,-0.10413 4.11198,-0.23602 5.81446,-0.43946 1.70247,-0.20343 3.22241,-0.47841 4.72656,-0.86523 1.50415,-0.38682 2.99215,-0.88673 4.625,-1.54102 1.63285,-0.65428 3.41141,-1.46292 5.5,-2.46875 4.47956,-2.15728 8.6335,-4.35961 12.60742,-6.71289 3.97392,-2.35328 7.76777,-4.85773 11.52735,-7.62109 3.75957,-2.76336 7.48573,-5.78435 11.32226,-9.17188 3.83653,-3.38753 7.78349,-7.1414 11.98828,-11.36718 4.89539,-4.91983 8.88816,-9.1602 12.125,-12.97071 1.61842,-1.90525 3.04789,-3.70179 4.30664,-5.42383 1.25876,-1.72203 2.34748,-3.36914 3.28321,-4.9707 0.93572,-1.60156 1.71783,-3.15733 2.36718,-4.70117 0.64935,-1.54384 1.16484,-3.07615 1.56446,-4.625 0.39961,-1.54885 0.68457,-3.11581 0.87109,-4.73242 0.18652,-1.61661 0.27508,-3.28218 0.28516,-5.0293 0.0142,-2.45916 -0.10573,-4.75696 -0.42578,-7.11914 -0.32006,-2.36218 -0.84112,-4.78835 -1.625,-7.50195 -0.78389,-2.7136 -1.83168,-5.7151 -3.20899,-9.22852 -1.37731,-3.51342 -3.08326,-7.53915 -5.18359,-12.30078 -2.23099,-5.05784 -4.67675,-10.16406 -7.32227,-15.30273 -2.64552,-5.13868 -5.49119,-10.30913 -8.52148,-15.49805 -3.0303,-5.18892 -6.24553,-10.39689 -9.63086,-15.60547 -3.38533,-5.20858 -6.93978,-10.41759 -10.65039,-15.61523 -3.71061,-5.19765 -7.57784,-10.38295 -11.58399,-15.53907 -4.00614,-5.15611 -8.1519,-10.28319 -12.42383,-15.36718 -4.27193,-5.08399 -8.66976,-10.1242 -13.17773,-15.10547 -4.50797,-4.98128 -9.12559,-9.90399 -13.83984,-14.75196 -4.71426,-4.84796 -9.52523,-9.62257 -14.41602,-14.30664 -4.89079,-4.68406 -9.86086,-9.278 -14.89844,-13.76757 -5.03758,-4.48958 -10.14225,-8.87419 -15.29687,-13.13868 -5.15462,-4.26449 -10.35965,-8.40915 -15.60156,-12.41797 -5.24192,-4.00881 -10.52086,-7.88097 -15.82032,-11.60351 -5.29945,-3.72254 -10.62001,-7.29549 -15.94726,-10.70117 -5.32725,-3.40568 -10.66104,-6.6449 -15.98633,-9.70313 -5.32529,-3.05822 -10.64196,-5.93505 -15.93555,-8.61523 -5.3277,-2.69745 -10.28685,-5.03377 -14.91992,-7.01758 -4.63307,-1.98381 -8.94055,-3.61498 -12.96289,-4.9043 -4.02234,-1.28932 -7.76032,-2.23563 -11.25586,-2.84961 -3.49554,-0.61397 -6.74814,-0.89574 -9.80078,-0.85351 z m 0.26562,59.23437 c 12.06637,0.0666 22.37804,4.83777 32.25977,14.92578 l 7.00391,7.15039 4.40429,6.69727 c 5.6233,6.55757 3.00639,9.10146 2.85938,13.40234 -0.1957,5.72544 -0.34576,3.39023 -1.0918,9.68946 -1.03151,8.70924 -6.40307,16.37453 -14.1914,20.25195 -7.25556,3.61217 -14.72815,4.65086 -22.35743,3.10938 -13.29751,-2.68676 -28.16642,-14.65043 -34.67383,-27.9004 -3.04389,-6.19791 -3.62304,-9.11925 -3.62304,-18.26367 0,-9.97491 0.33882,-11.36791 4.05859,-16.66601 6.10817,-8.69979 13.79774,-12.46036 25.35156,-12.39649 z m 54.16598,39.61524 c -1.08156,0.71996 -2.09605,1.30331 -3,1.70703 -0.90395,0.40371 -1.69667,0.62695 -2.33008,0.62695 -0.33543,0 -1.03632,-0.31157 -1.89453,-0.8125 -0.85821,-0.50093 -1.87374,-1.19122 -2.83984,-1.95117 -0.70613,-0.55544 -1.31092,-1.13083 -1.81446,-1.72852 -0.50353,-0.59769 -0.90489,-1.21807 -1.20507,-1.86328 -0.30019,-0.6452 -0.49964,-1.31568 -0.59571,-2.01367 -0.0961,-0.69799 -0.0893,-1.42364 0.0195,-2.17969 0.10881,-0.75604 0.32032,-1.54195 0.63477,-2.36132 0.31445,-0.81938 0.73111,-1.67258 1.25195,-2.56055 1.04169,-1.77594 2.4973,-3.69345 4.36914,-5.77539 22.21735,-22.53678 30.96691,3.07562 7.40433,18.91211 z"
         style="fill:#e07656;stroke-width:1.33333337"
         transform="scale(0.26458333)" />
      <path
         sodipodi:nodetypes="cccscccsccccccccccccccccccccccasccccccc"
         inkscape:connector-curvature="0"
         style="opacity:0.98999999;fill:#fd8895;fill-opacity:1;stroke:none;stroke-width:0.68434292;stroke-miterlimit:4;stroke-dasharray:none;stroke-opacity:1"
         d="m -63.130209,149.83572 c -0.105888,0.75687 -0.26494,1.44147 -0.483357,2.06241 -0.218386,0.62092 -0.49595,1.17843 -0.838889,1.68074 -0.342939,0.5023 -0.751232,0.94919 -1.230562,1.35023 -0.47933,0.40104 -1.029595,0.75601 -1.657153,1.07313 -0.382166,0.19313 -0.692148,0.34016 -0.983325,0.44621 -0.291186,0.10605 -0.563793,0.171 -0.869784,0.20004 -0.305985,0.0291 -0.645795,0.0221 -1.072362,-0.0158 -0.426566,-0.0379 -0.939698,-0.10666 -1.592638,-0.20155 -0.598626,-0.0866 -1.093914,-0.16868 -1.523805,-0.25838 -0.4299,-0.0897 -0.794261,-0.18712 -1.130958,-0.30629 -0.336698,-0.1191 -0.64599,-0.25991 -0.964977,-0.4352 -0.318989,-0.17528 -0.647799,-0.38514 -1.024563,-0.64332 -0.402736,-0.27597 -0.795171,-0.58529 -1.174091,-0.92247 -0.378929,-0.33719 -0.744538,-0.70223 -1.092953,-1.08928 -0.348414,-0.38706 -0.679487,-0.79611 -0.99069,-1.22168 -0.311211,-0.42558 -0.602501,-0.86783 -0.869801,-1.32058 -0.26731,-0.45275 -0.510667,-0.91589 -0.727366,-1.38448 -0.21671,-0.46857 -0.406812,-0.94231 -0.566221,-1.41538 -0.15941,-0.47306 -0.288035,-0.94561 -0.383447,-1.41181 -0.09542,-0.4662 -0.157406,-0.92622 -0.182131,-1.37421 -0.02836,-0.51406 -0.01475,-1.01934 0.04052,-1.51577 0.05532,-0.49642 0.151993,-0.98388 0.291178,-1.46213 0.138788,-0.4783 0.319069,-0.94784 0.54124,-1.40753 0.222168,-0.45969 0.485982,-0.90971 0.791412,-1.35031 0.327853,-0.47295 0.712135,-0.89715 1.140115,-1.26677 0.427969,-0.3696 0.89973,-0.68444 1.403095,-0.93823 0.503354,-0.25379 1.038244,-0.44689 1.592244,-0.57239 0.554009,-0.12548 1.127023,-0.18354 1.706928,-0.16825 0.419444,0.011 0.745074,0.0249 1.011905,0.0582 0.266837,0.0332 0.53542,0.0442 0.799127,0.0929 0.404906,0.0748 0.798807,0.20662 1.196979,0.30518 1.868788,0.46254 2.093179,0.46458 4.557135,2.2926 l 1.60587,2.10581 c 0.566401,0.74276 1.04467,1.47966 1.43672,2.217 0.392061,0.73734 0.697867,1.47509 0.919009,2.21858 0.221153,0.74348 0.357842,1.49278 0.411528,2.25399 0.05368,0.7612 0.02439,1.53433 -0.08597,2.32482 z"
         id="path1250" />
      <path
         style="fill:#0c0c0e;stroke-width:0.35277778"
         d="m -88.82427,216.16759 c -3.19003,-0.80097 -5.64149,-2.68196 -7.87611,-6.04331 l -1.65696,-2.49243 -2.36134,0.23268 c -1.57901,0.15559 -3.20045,0.0577 -4.89407,-0.29541 -5.32688,-1.11069 -8.89569,-4.09227 -11.5417,-9.64257 -4.93408,-10.34976 -12.38204,-20.20328 -23.03685,-30.47734 -2.93179,-2.82702 -5.33053,-5.39435 -5.33053,-5.70516 0,-1.86254 1.52882,-3.05463 3.23773,-2.52461 1.26033,0.39089 14.5818,13.97848 17.85867,18.21542 4.30992,5.57266 7.77616,10.95751 10.61045,16.48347 2.97222,5.79489 4.8024,7.77003 8.08367,8.72392 3.13642,0.91178 5.54764,0.51812 9.81294,-1.6021 6.05552,-3.01011 12.036,-7.95808 15.80205,-13.0739 3.74022,-5.08073 3.53379,-8.74889 -1.02873,-18.27927 -5.30925,-11.09019 -12.78886,-21.19621 -23.9635,-32.37812 -12.41161,-12.41968 -24.31161,-20.84188 -36.24993,-25.6558 -6.9794,-2.81432 -9.79156,-2.63419 -14.64405,0.93801 -7.03995,5.18252 -14.38054,15.82403 -14.81888,21.48266 -0.13324,1.72009 0.002,2.65752 0.61772,4.28919 1.23498,3.27149 2.86483,4.74087 8.43252,7.60229 6.43584,3.30758 11.84787,6.86738 12.37485,8.13962 0.70099,1.69232 -0.86865,3.46305 -2.66919,3.01114 -0.45843,-0.11506 -2.48986,-1.28738 -4.51427,-2.60515 -2.02442,-1.31778 -5.70931,-3.41035 -8.18865,-4.65016 -5.00683,-2.5037 -7.35989,-4.4943 -9.08091,-7.6821 -1.36392,-2.52635 -2.10204,-6.29918 -1.81074,-9.25543 l 0.23268,-2.36133 -2.49242,-1.65697 c -4.44927,-2.95786 -6.19173,-5.98473 -6.21604,-10.79799 -0.018,-3.56701 0.64584,-5.24433 4.03284,-10.18948 3.13943,-4.58368 6.27955,-6.48438 10.76451,-6.51568 3.39258,-0.0237 4.76621,0.45578 9.00437,3.14294 l 3.65843,2.31958 1.96097,-0.75969 c 2.8117,-1.08927 5.77382,-1.44808 8.45415,-1.02406 1.24293,0.19663 2.37818,0.23144 2.52279,0.0774 0.14461,-0.15408 0.3183,-1.77693 0.38598,-3.60633 l 0.12304,-3.326177 -2.46944,-1.67876 c -2.87318,-1.95322 -4.44669,-3.83666 -5.45355,-6.52774 -0.9038,-2.41564 -0.9342,-5.9917 -0.0716,-8.42447 0.78466,-2.21296 4.16102,-7.42992 5.94235,-9.18177 1.88007,-1.848958 4.73524,-3.100998 7.48442,-3.282047 3.48717,-0.229652 5.53644,0.404124 9.56429,2.957937 1.97254,1.25067 3.72788,2.27394 3.90075,2.27394 0.17287,0 1.54797,-0.41414 3.05577,-0.92031 2.41255,-0.80989 3.18587,-0.90512 6.44562,-0.79375 l 3.70417,0.12656 0.18896,-3.175003 c 0.20791,-3.493505 0.008,-4.01623 -1.91928,-5.012743 -1.7184,-0.888622 -4.46398,-3.694606 -5.37589,-5.494157 -2.59273,-5.116513 -1.81382,-9.198434 3.12337,-16.368328 2.93229,-4.258317 7.16906,-6.425992 11.7234,-5.998082 2.687,0.252461 4.20259,0.884695 7.92161,3.304528 1.6292,1.060055 3.2167,1.932915 3.52778,1.939689 0.31109,0.0068 1.51811,-0.354122 2.68227,-0.801984 1.68624,-0.648713 2.79818,-0.812387 5.46806,-0.804901 3.00737,0.0084 3.71352,0.146261 6.87917,1.342672 15.92001,6.016734 34.70746,20.268819 48.59978,36.867589 2.44543,2.92184 3.08216,3.91263 3.08216,4.79602 0,1.31932 -0.92486,2.28109 -2.19356,2.28109 -1.10929,0 -1.76043,-0.55319 -4.36012,-3.70417 -13.50043,-16.363369 -32.8124,-30.878541 -48.04008,-36.107656 -5.77306,-1.982442 -9.73762,-0.348989 -16.67783,6.87149 -6.25694,6.509621 -10.34699,14.400727 -9.70007,18.714726 0.47288,3.15338 1.00931,3.86924 4.04207,5.39408 22.36107,11.24292 44.73988,33.386867 56.82824,56.231837 1.90704,3.60399 2.38781,4.25745 3.46278,4.7066 2.03208,0.84906 4.63906,0.96225 6.96364,0.30234 7.43536,-2.11077 20.06336,-13.0918 21.65806,-18.83337 0.6048,-2.17752 0.41887,-4.8897 -0.52871,-7.7125 -1.30064,-3.87454 -3.8909,-9.18321 -6.98032,-14.305987 -1.49061,-2.47169 -2.71021,-4.88129 -2.71021,-5.35466 0,-2.1621 2.82833,-2.72611 4.38621,-0.87467 2.29897,2.73216 7.35561,12.317627 9.56504,18.131657 1.2057,3.17277 1.34156,3.86504 1.35001,6.87916 0.007,2.66988 -0.15619,3.78182 -0.8049,5.46806 -0.44786,1.16417 -0.80876,2.37119 -0.80199,2.68227 0.007,0.31109 0.87964,1.89859 1.93969,3.52778 2.41984,3.71903 3.05207,5.23462 3.30453,7.92161 0.42791,4.55434 -1.73976,8.79112 -5.99808,11.7234 -7.1699,4.9372 -11.25182,5.7161 -16.36833,3.12337 -1.82721,-0.92592 -4.60903,-3.66425 -5.52826,-5.44183 -0.94114,-1.81996 -1.53212,-2.03678 -5.01737,-1.84077 l -3.13627,0.17639 0.12655,3.70417 c 0.11138,3.25975 0.0162,4.03307 -0.79375,6.44562 -0.50616,1.5078 -0.9203,2.8829 -0.9203,3.05577 0,0.17288 1.02327,1.92821 2.27394,3.90075 2.55381,4.02785 3.18758,6.07712 2.95793,9.56429 -0.18105,2.74919 -1.43309,5.60435 -3.28204,7.48442 -1.75186,1.78133 -6.96881,5.15769 -9.18178,5.94235 -2.43277,0.8626 -6.00882,0.83221 -8.42446,-0.0716 -2.69108,-1.00686 -4.57453,-2.58037 -6.52775,-5.45355 l -1.67875,-2.46944 -3.32619,0.12305 c -1.8294,0.0677 -3.45224,0.24136 -3.60632,0.38597 -0.15408,0.14461 -0.11697,1.2843 0.0824,2.53264 0.41914,2.6237 0.0684,5.44688 -1.04986,8.44962 l -0.73224,1.96628 2.31622,3.65312 c 2.68373,4.23276 3.16324,5.60719 3.13957,8.99906 -0.0184,2.64038 -0.75488,4.8144 -2.47462,7.30512 -1.02699,1.48741 -6.179,5.15014 -9.17087,6.51986 -2.21453,1.01385 -5.72695,1.36574 -7.98156,0.79964 z m 5.39133,-4.70032 c 2.31556,-0.83921 7.33301,-4.36173 8.30506,-5.83061 1.26188,-1.90682 1.66522,-3.87484 1.21023,-5.90509 -0.35416,-1.58035 -3.21603,-6.48306 -3.78437,-6.48306 -0.15429,0 -1.46718,1.20253 -2.91753,2.6723 -3.07413,3.11528 -7.13004,6.2729 -10.42239,8.11409 -1.27965,0.71562 -2.40663,1.50959 -2.5044,1.76436 -0.23882,0.62237 1.74254,3.44989 3.15571,4.50338 2.15061,1.60324 4.61108,2.01509 6.95769,1.16463 z m 33.0443,-32.66034 c 2.67192,-1.21315 6.80315,-4.24594 7.76627,-5.70131 1.09693,-1.65757 1.46973,-4.51469 0.83859,-6.42704 -0.54295,-1.64516 -3.06804,-5.53285 -3.59364,-5.53285 -0.22696,0 -1.79605,1.3336 -3.48687,2.96356 -3.42177,3.2986 -6.39288,5.58657 -9.95972,7.66971 -1.47127,0.85927 -2.38325,1.62269 -2.38215,1.9941 0.003,1.04054 2.57717,4.04307 4.19884,4.8977 1.92987,1.01704 4.55939,1.07112 6.61868,0.13613 z m -13.9943,-9.64656 c 4.74087,-2.28313 8.10318,-4.75445 12.55325,-9.22674 5.18095,-5.20682 6.54098,-7.53481 6.56231,-11.23287 0.015,-2.60261 -0.54045,-4.52526 -2.7633,-9.56465 -9.44451,-21.41151 -33.43149,-46.078907 -55.84102,-57.424997 -7.51798,-3.8064 -12.26419,-4.89114 -15.92271,-3.63911 -5.06535,1.73347 -13.37912,10.79771 -17.1522,18.70049 -1.2329,2.58233 -1.34274,3.05991 -1.33672,5.812127 0.009,4.30247 0.39208,4.86567 4.81345,7.08442 21.576,10.82734 45.18517,34.44366 56.02241,56.03938 1.6197,3.22764 1.95954,3.67122 3.29026,4.29468 1.19109,0.55805 2.04103,0.66924 4.30621,0.56337 2.35779,-0.1102 3.25764,-0.3416 5.46806,-1.4061 z m -7.02995,-31.87472 c -0.40214,-0.51123 -0.73116,-1.07474 -0.73116,-1.25224 0,-1.3407 3.78808,-5.36561 5.44015,-5.78025 1.14252,-0.28676 2.58138,0.59205 2.87323,1.75487 0.29753,1.18544 -0.57796,2.67269 -2.69243,4.57377 -2.20339,1.98104 -3.71411,2.1985 -4.88979,0.70385 z m -14.72499,-12.07071 c -3.39484,-1.17317 -6.0005,-3.86442 -6.99993,-7.22986 -0.79315,-2.67082 -0.68759,-4.33452 0.34022,-5.36233 1.74807,-1.74806 3.90673,-0.79422 4.2401,1.87355 0.11479,0.91865 0.53544,2.33054 0.93477,3.13754 0.84203,1.70163 2.7162,2.80138 5.33087,3.12811 2.66778,0.33337 3.62162,2.49203 1.87355,4.24009 -1.06495,1.06495 -3.04111,1.13851 -5.71958,0.2129 z m -18.94332,-21.59759 c -1.49464,-1.17569 -1.27719,-2.6864 0.70385,-4.889787 1.90109,-2.11447 3.38833,-2.98996 4.57377,-2.69244 1.16282,0.29185 2.04163,1.73072 1.75488,2.87324 -0.41464,1.652067 -4.43955,5.440147 -5.78026,5.440147 -0.1775,0 -0.74101,-0.32902 -1.25224,-0.73116 z m 86.82521,43.02337 c 1.67581,-0.62215 7.21084,-4.63976 7.8705,-5.71281 1.011,-1.64455 1.48037,-3.69371 1.22941,-5.36724 -0.23221,-1.5485 -3.17521,-6.8705 -3.7993,-6.8705 -0.2007,0 -1.92569,1.49807 -3.8333,3.32904 -2.01157,1.93075 -5.06729,4.36919 -7.27507,5.80544 -5.88354,3.82748 -5.37552,3.15948 -4.01508,5.27954 0.64295,1.00195 1.65752,2.16959 2.2546,2.59475 2.10297,1.49745 5.07525,1.86731 7.56824,0.94178 z M -171.7263,123.07321 c 1.98897,-3.36798 5.40976,-7.70717 8.35697,-10.60062 1.2789,-1.25558 2.32527,-2.40972 2.32527,-2.56476 0,-0.50431 -4.73622,-3.36089 -6.24676,-3.76763 -2.00976,-0.54118 -4.09759,-0.13637 -6.03242,1.16962 -2.09791,1.41608 -5.91923,7.2893 -6.27163,9.63926 -0.26914,1.79478 0.26796,3.98759 1.34919,5.50827 0.90232,1.26906 3.81463,3.42997 4.47278,3.31876 0.27517,-0.0465 1.19614,-1.26281 2.0466,-2.7029 z m 32.19893,-32.125537 c 2.04417,-3.50009 5.18766,-7.54208 8.08989,-10.4022 1.37291,-1.35299 2.4962,-2.66614 2.4962,-2.91811 0,-0.5616 -3.81911,-3.07354 -5.53285,-3.63913 -1.91235,-0.63113 -4.76946,-0.25834 -6.42704,0.83859 -1.45537,0.96312 -4.48816,5.09436 -5.70131,7.76627 -0.93499,2.05929 -0.88091,4.68882 0.13614,6.61868 0.85463,1.62168 3.85716,4.19578 4.8977,4.19885 0.37334,0.001 1.14825,-0.93388 2.04127,-2.46295 z m 31.27599,-30.60819 c 3.02739,-4.912762 5.66694,-8.460736 8.45714,-11.36772 1.81968,-1.895856 3.30852,-3.61122 3.30852,-3.811923 0,-0.624092 -5.32199,-3.567091 -6.8705,-3.799304 -1.67755,-0.251562 -3.7232,0.218772 -5.37945,1.236836 -1.57165,0.966068 -5.61135,7.137975 -6.08711,9.299977 -0.40819,1.85493 -0.0605,3.826439 0.9978,5.657127 0.5454,0.9435 4.05594,3.755146 4.68856,3.755146 0.15796,0 0.55624,-0.436562 0.88504,-0.970139 z M 27.27939,181.42936 c -0.18164,-0.18165 2.31019,-9.76587 2.70526,-10.4051 0.13738,-0.22227 3.80801,-0.35353 9.88665,-0.35353 9.068,0 9.68998,-0.0408 10.01968,-0.65682 0.45991,-0.85936 0.0452,-1.35478 -2.62163,-3.13205 -4.33875,-2.89146 -5.6569,-5.09011 -5.40676,-9.01842 0.37415,-5.87591 5.93603,-11.75239 12.24776,-12.94055 1.99087,-0.37478 50.90676,-0.52618 51.27424,-0.15871 0.24617,0.24617 -2.18579,9.68749 -2.65215,10.29613 -0.24422,0.31875 -1.8296,0.44098 -5.71954,0.44098 -3.87788,0 -5.4824,0.12321 -5.74217,0.44097 -0.19828,0.24253 -1.82826,5.91785 -3.62219,12.6118 -1.79392,6.69396 -3.41681,12.36927 -3.60644,12.61181 -0.24754,0.31662 -1.78589,0.44097 -5.45509,0.44097 h -5.11033 l 0.23616,-0.97014 c 0.12988,-0.53357 1.65947,-6.25686 3.39908,-12.71841 1.7396,-6.46154 3.06992,-11.89873 2.95627,-12.08263 -0.32474,-0.52544 -23.20194,-0.43967 -23.73057,0.089 -0.78737,0.78737 -0.43045,1.27684 2.35358,3.22765 4.59716,3.22132 5.99753,5.61218 5.59149,9.54636 -0.5805,5.62447 -6.24789,11.41736 -12.29131,12.56346 -1.82709,0.3465 -24.3801,0.49916 -24.71199,0.16727 z m 86.98037,-0.34759 c -4.2585,-0.92636 -7.23851,-3.1635 -9.01159,-6.76513 -2.81677,-5.72167 -1.15932,-14.05587 4.00467,-20.13685 6.83932,-8.05379 17.62151,-11.57205 25.19597,-8.22151 2.34963,1.03935 5.17428,3.91426 6.35292,6.46595 0.92916,2.01156 1.012,2.51959 0.99063,6.07567 -0.0207,3.45375 -0.13976,4.17372 -1.08217,6.54604 -3.20207,8.06059 -10.98046,14.60303 -19.07798,16.04657 -3.34798,0.59684 -4.5877,0.59503 -7.37245,-0.0107 z M 124.5967,169.9841 c 0.81304,-0.36912 2.1942,-1.33107 3.06926,-2.13767 5.22382,-4.81516 3.59945,-12.3512 -2.66054,-12.34318 -2.22619,0.003 -3.95863,0.57656 -5.66024,1.87442 -5.16523,3.93966 -5.83016,10.22975 -1.33616,12.63991 1.60812,0.86244 4.64834,0.84699 6.58768,-0.0335 z m 16.14392,10.6526 c 0.12988,-0.53357 1.65947,-6.25686 3.39908,-12.71841 1.7396,-6.46154 3.06992,-11.89873 2.95627,-12.08263 -0.11366,-0.18391 -0.90229,-0.33437 -1.75252,-0.33437 -0.85022,0 -1.61168,-0.11907 -1.69213,-0.26459 -0.19914,-0.36019 2.43826,-9.97126 2.84893,-10.38193 0.19437,-0.19438 5.98263,-0.28408 14.22574,-0.22046 l 13.89802,0.10725 1.99323,0.97886 c 4.88668,2.39975 6.24106,7.95365 3.36074,13.78108 -1.50848,3.05196 -3.64508,5.35685 -6.9438,7.49077 -1.35692,0.87779 -2.46711,1.81741 -2.46711,2.08805 0,1.08441 1.48406,1.59041 4.6646,1.59041 2.24575,0 3.09457,0.12115 3.08949,0.44097 -0.004,0.24254 -0.61101,2.66347 -1.3492,5.37986 l -1.34218,4.93889 -4.73622,-0.004 c -6.72337,-0.006 -7.0831,-0.20709 -11.74371,-6.55625 -2.65269,-3.61376 -3.75325,-4.85288 -4.26303,-4.79979 -0.5742,0.0598 -0.92225,0.94171 -2.11667,5.36323 -0.78621,2.91042 -1.55791,5.49011 -1.71488,5.73264 -0.20678,0.3195 -1.69934,0.44098 -5.4181,0.44098 h -5.13271 l 0.23616,-0.97014 z m 26.12228,-20.53899 c 1.95379,-0.45087 3.35139,-2.06741 3.35139,-3.87643 0,-2.22066 -0.67995,-2.48388 -6.41608,-2.48388 -5.53006,0 -5.13496,-0.22551 -6.0948,3.47862 -0.80659,3.11273 -0.66546,3.22621 3.99921,3.21574 2.06204,-0.005 4.38417,-0.15495 5.16028,-0.33405 z m 13.03606,20.53899 c 0.12989,-0.53357 1.65946,-6.25686 3.39908,-12.71841 1.73958,-6.46154 3.06991,-11.89873 2.95624,-12.08263 -0.11363,-0.18391 -0.90226,-0.33437 -1.75249,-0.33437 -0.85023,0 -1.6117,-0.11907 -1.69214,-0.26459 -0.15836,-0.28641 2.30961,-9.6054 2.71939,-10.26844 0.18172,-0.29402 5.28662,-0.40309 18.86673,-0.40309 10.23966,0 18.70714,0.0896 18.81661,0.19901 0.24617,0.24617 -2.18578,9.68749 -2.65215,10.29613 -0.25778,0.33643 -2.99378,0.44098 -11.54039,0.44098 -12.33427,0 -12.01434,-0.058 -12.11777,2.19513 l -0.0531,1.15625 8.37847,0.0946 c 7.68512,0.0868 8.37653,0.14514 8.35491,0.70556 -0.013,0.33604 -0.45092,2.1191 -0.97325,3.96236 l -0.94967,3.35139 -8.5137,0.0944 c -9.3056,0.10316 -9.19949,0.078 -9.37351,2.22272 l -0.0982,1.21068 11.28889,0.17639 c 10.36697,0.16199 11.28508,0.22562 11.24232,0.77915 -0.0872,1.12891 -2.34343,9.27326 -2.69162,9.71599 -0.26875,0.34172 -4.11734,0.44097 -17.09883,0.44097 H 179.66281 Z M 7.01531,122.87344 c -4.25849,-0.92636 -7.23851,-3.1635 -9.01158,-6.76513 -2.81677,-5.72167 -1.15933,-14.05587 4.00466,-20.136847 3.96656,-4.67092 9.70192,-8.15642 14.96454,-9.09429 1.71197,-0.30509 5.32524,-0.50045 9.39621,-0.50802 6.07084,-0.0113 6.61421,0.0384 6.60995,0.60505 -0.005,0.73272 -2.30239,9.41778 -2.63149,9.95027 -0.14616,0.2365 -2.8422,0.37126 -7.52705,0.37623 -8.29027,0.009 -8.97821,0.17236 -11.84683,2.816547 -3.8692,3.5665 -4.26322,8.90391 -0.83768,11.3472 1.09569,0.7815 1.51307,0.83016 8.56019,0.99795 4.62953,0.11022 7.39238,0.30871 7.36579,0.52916 -0.10522,0.87271 -2.3822,9.23699 -2.66498,9.78959 -0.28549,0.5579 -0.98579,0.61466 -7.27086,0.58931 -4.36408,-0.0176 -7.75808,-0.20275 -9.11087,-0.49702 z m 34.92501,0 c -4.2585,-0.92636 -7.23852,-3.1635 -9.01159,-6.76513 -2.81677,-5.72167 -1.15933,-14.05587 4.00466,-20.136847 6.83932,-8.0538 17.62151,-11.57205 25.19597,-8.22151 2.34963,1.03935 5.17428,3.91426 6.35293,6.46594 0.92916,2.01157 1.01199,2.5196 0.99063,6.075667 -0.0207,3.45375 -0.13977,4.17372 -1.08218,6.54605 -3.20207,8.06059 -10.98045,14.60302 -19.07797,16.04656 -3.34798,0.59684 -4.58771,0.59504 -7.37245,-0.0107 z m 10.33693,-11.09767 c 0.81304,-0.36912 2.19421,-1.33107 3.06926,-2.13767 5.22383,-4.81516 3.59946,-12.351207 -2.66054,-12.343177 -2.22619,0.003 -3.95863,0.57656 -5.66023,1.87442 -5.16524,3.939657 -5.83016,10.229747 -1.33616,12.639907 1.60811,0.86244 4.64834,0.84699 6.58767,-0.0335 z m 12.04381,11.44525 c -0.18164,-0.18164 2.31019,-9.76586 2.70526,-10.40509 0.13737,-0.22227 3.80801,-0.35353 9.88665,-0.35353 9.068,0 9.68998,-0.0408 10.01968,-0.65683 0.45991,-0.85936 0.0452,-1.35478 -2.62163,-3.13204 -4.33875,-2.89146 -5.6569,-5.09012 -5.40676,-9.018417 0.37415,-5.87592 5.93603,-11.7524 12.24776,-12.94056 2.22938,-0.41967 103.27619,-0.51058 103.51132,-0.0931 0.082,0.14553 -1.33787,5.82084 -3.15517,12.61181 -1.81734,6.790967 -3.2294,12.545657 -3.13793,12.788187 0.12824,0.33992 2.71078,0.44098 11.2691,0.44098 6.10651,0 11.18228,0.12869 11.27951,0.28599 0.21957,0.35529 -2.22525,9.60384 -2.69875,10.20915 -0.26737,0.34174 -4.11456,0.44097 -17.09699,0.44097 h -16.75197 l 0.23615,-0.97014 c 0.12989,-0.53358 1.65947,-6.25686 3.39908,-12.71841 1.73959,-6.46155 3.06991,-11.898727 2.95625,-12.082637 -0.12411,-0.20084 -5.39352,-0.33437 -13.19541,-0.33437 -14.29929,0 -13.79963,-0.0789 -13.90401,2.19513 l -0.0531,1.156257 8.37847,0.0946 c 7.68513,0.0868 8.37654,0.14514 8.35491,0.70556 -0.013,0.33603 -0.45092,2.1191 -0.97324,3.96236 l -0.94968,3.35139 -8.51369,0.0944 c -9.30563,0.10316 -9.19951,0.078 -9.37353,2.22272 l -0.0982,1.21068 11.28889,0.17639 c 10.36698,0.16198 11.28508,0.22561 11.24232,0.77915 -0.0872,1.1289 -2.34343,9.27325 -2.69162,9.71599 -0.26875,0.34171 -4.11734,0.44097 -17.09881,0.44097 h -16.75199 l 0.23615,-0.97014 c 0.12989,-0.53358 1.65947,-6.25686 3.39908,-12.71841 1.73961,-6.46155 3.06993,-11.898727 2.95627,-12.082637 -0.33037,-0.53454 -14.4615,-0.43346 -14.90301,0.1066 -0.19828,0.24254 -1.82826,5.917847 -3.62219,12.611807 -1.79392,6.69396 -3.41682,12.36927 -3.60644,12.61181 -0.24754,0.31661 -1.78589,0.44097 -5.45509,0.44097 h -5.11033 l 0.23616,-0.97014 c 0.12988,-0.53358 1.65947,-6.25686 3.39907,-12.71841 1.73961,-6.46155 3.06993,-11.898727 2.95627,-12.082637 -0.32473,-0.52543 -23.20193,-0.43966 -23.73056,0.089 -0.78737,0.78736 -0.43045,1.27683 2.35357,3.227647 4.59717,3.22132 5.99754,5.61218 5.5915,9.54636 -0.5805,5.62447 -6.24789,11.41735 -12.29131,12.56346 -1.82709,0.3465 -24.3801,0.49915 -24.71199,0.16726 z m 148.22656,-0.0889 c 0,-0.14649 3.33375,-5.74163 7.40834,-12.43365 4.07458,-6.69202 7.40833,-12.445917 7.40833,-12.786437 0,-0.56594 -0.51329,-0.61912 -5.97641,-0.61912 -3.28701,0 -6.04224,-0.11906 -6.12267,-0.26458 -0.15836,-0.28641 2.3096,-9.6054 2.71939,-10.26845 0.37627,-0.60885 30.86463,-0.57166 31.06942,0.0379 0.35796,1.06562 2.63994,36.048237 2.36915,36.319047 -0.16566,0.16566 -2.66573,0.25712 -5.55569,0.20323 l -5.25444,-0.098 -0.36259,-2.11667 -0.36255,-2.11666 -6.79894,-0.0958 -6.79895,-0.0958 -1.44254,2.3007 -1.44255,2.3007 h -5.42865 c -2.98577,0 -5.42865,-0.11986 -5.42865,-0.26635 z m 26.5321,-16.98169 c -0.10488,-5.19041 -0.43617,-6.759257 -1.27949,-6.05935 -0.86536,0.71818 -6.60925,10.58758 -6.37885,10.9604 0.14739,0.23849 1.60796,0.33936 3.99661,0.276 l 3.76436,-0.0999 z"
         id="path95"
         inkscape:connector-curvature="0" />
      <path
         inkscape:connector-curvature="0"
         id="path1186"
         d="m -563.39844,414.65234 c -2.22702,0.0403 -4.37017,0.2937 -6.48437,0.76172 -2.11421,0.46802 -4.19916,1.15002 -6.31055,2.05274 -2.11139,0.90272 -4.25016,2.02472 -6.46875,3.36914 -2.21859,1.34442 -4.51733,2.91194 -6.95312,4.70508 -3.32597,2.44843 -6.67018,5.22018 -9.97852,8.23632 -3.30834,3.01615 -6.58126,6.27735 -9.76563,9.70704 -3.18436,3.42968 -6.28034,7.02774 -9.23437,10.71679 -2.95403,3.68906 -5.76546,7.46746 -8.38281,11.26172 -2.61735,3.79426 -5.04053,7.60432 -7.21485,11.34961 -2.17431,3.74529 -4.09968,7.4266 -5.72461,10.96875 -1.62492,3.54215 -2.94878,6.94406 -3.91796,10.12891 -0.96919,3.18484 -1.58393,6.1528 -1.79102,8.82617 -0.25179,3.25056 -0.24862,5.76124 0.10742,8.23047 0.35604,2.46922 1.06495,4.89699 2.22852,7.98047 0.58345,1.54558 1.18945,2.98549 1.8457,4.34179 0.65625,1.3563 1.36318,2.62958 2.14453,3.84375 0.78136,1.21418 1.6389,2.36907 2.59766,3.48828 0.95876,1.11922 2.01855,2.20202 3.20703,3.27344 2.37696,2.14283 5.26534,4.23804 8.875,6.47266 3.60966,2.23462 7.94036,4.60879 13.20117,7.3125 6.08111,3.12527 11.91982,6.30987 17.28906,9.40429 5.36925,3.09443 10.26928,6.09772 14.47071,8.86133 4.20143,2.76361 7.70554,5.28708 10.2832,7.41992 1.28883,1.06643 2.34518,2.03619 3.14258,2.88868 0.79739,0.85248 1.33502,1.58839 1.58398,2.18945 0.48049,1.15998 0.67536,2.32888 0.63477,3.45508 -0.0406,1.12619 -0.31664,2.20969 -0.78125,3.20117 l 18.11328,14.38477 c 0.5703,-0.49877 1.19933,-0.9211 1.875,-1.25782 0.67567,-0.33671 1.39813,-0.58873 2.15625,-0.74414 0.75812,-0.15541 1.55149,-0.21506 2.36914,-0.16992 0.81765,0.0451 1.65942,0.19599 2.51367,0.46094 0.59543,0.18467 1.90295,1.14771 3.75977,2.72461 1.85681,1.57689 4.26286,3.76806 7.05469,6.40429 5.58364,5.27248 12.71069,12.33123 20.07617,19.84375 7.36547,7.51253 14.96951,15.47886 21.50586,22.56836 6.53634,7.08951 12.0053,13.30128 15.10156,17.30469 4.07236,5.26551 7.94643,10.4873 11.63281,15.68359 3.68638,5.1963 7.18444,10.36733 10.50977,15.53321 3.32533,5.16587 6.47757,10.32576 9.46679,15.5 2.98923,5.17423 5.81608,10.3626 8.49414,15.58398 2.8084,5.47549 5.3477,10.04859 7.76954,13.88477 1.21091,1.91809 2.39273,3.65242 3.56445,5.22265 1.17172,1.57024 2.33308,2.97655 3.50391,4.24024 1.17082,1.26369 2.35037,2.38435 3.55859,3.38281 1.20822,0.99846 2.44459,1.87389 3.72851,2.64844 1.28392,0.77454 2.61576,1.44907 4.01368,2.04101 1.39791,0.59195 2.8619,1.10208 4.41211,1.55274 2.96354,0.86152 5.75589,1.41499 8.52929,1.63476 1.3867,0.10989 2.7678,0.13603 4.16406,0.0762 1.39627,-0.0599 2.80806,-0.2056 4.25196,-0.44141 2.88779,-0.47162 5.90811,-1.30101 9.21484,-2.51367 3.30673,-1.21267 6.89948,-2.80915 10.92969,-4.8125 2.86087,-1.4221 5.71656,-2.95782 8.55273,-4.59571 2.83618,-1.63788 5.6537,-3.37753 8.4336,-5.20507 2.7799,-1.82755 5.52278,-3.74329 8.21484,-5.73438 2.69206,-1.99109 5.33166,-4.05704 7.9043,-6.18555 2.57264,-2.1285 5.07835,-4.32075 7.5,-6.56054 2.42165,-2.23979 4.76092,-4.52856 7,-6.85352 2.23908,-2.32496 4.3774,-4.68631 6.40234,-7.07031 2.02495,-2.384 3.93561,-4.79011 5.71485,-7.20703 1.76703,-2.40035 3.3017,-4.71668 4.59961,-7.00391 1.2979,-2.28723 2.35891,-4.54465 3.18164,-6.82617 0.82272,-2.28152 1.40655,-4.58751 1.74804,-6.9707 0.3415,-2.3832 0.44072,-4.84523 0.29492,-7.4375 -0.14579,-2.59227 -0.53663,-5.31587 -1.17578,-8.22461 -0.63914,-2.90875 -1.52746,-6.00137 -2.66601,-9.33399 -1.13855,-3.33261 -2.52787,-6.9037 -4.17188,-10.76757 -1.644,-3.86388 -3.54174,-8.0209 -5.69726,-12.52344 -2.50831,-5.23946 -5.14403,-10.4202 -7.91993,-15.5586 -2.77589,-5.1384 -5.69182,-10.23497 -8.75781,-15.30273 -3.06599,-5.06776 -6.2835,-10.10722 -9.66211,-15.13477 -3.3786,-5.02754 -6.91908,-10.04279 -10.63281,-15.06054 -3.71373,-5.01776 -7.60051,-10.0378 -11.67187,-15.07618 -4.07137,-5.03837 -8.32583,-10.09416 -12.77735,-15.18359 -4.45152,-5.08943 -9.09894,-10.21191 -13.95312,-15.38281 -4.85418,-5.1709 -9.91596,-10.39104 -15.19532,-15.67383 -5.86375,-5.86756 -11.69651,-11.49819 -17.5039,-16.89648 -5.80739,-5.3983 -11.58851,-10.56523 -17.34766,-15.5 -5.75915,-4.93477 -11.49777,-9.63825 -17.21679,-14.11524 -5.71903,-4.47699 -11.41846,-8.72699 -17.10547,-12.75195 -5.68702,-4.02496 -11.36032,-7.82562 -17.02344,-11.4043 -5.66312,-3.57867 -11.3175,-6.93413 -16.96485,-10.07226 -5.64734,-3.13814 -11.28804,-6.05838 -16.92773,-8.76172 -5.63969,-2.70334 -11.27782,-5.19055 -16.91797,-7.46485 -3.09127,-1.2465 -5.96555,-2.33817 -8.66211,-3.27148 -2.69656,-0.93332 -5.21451,-1.70898 -7.59179,-2.32422 -2.37729,-0.61524 -4.61461,-1.06905 -6.74805,-1.36133 -2.13344,-0.29227 -4.16389,-0.4223 -6.12891,-0.38672 z"
         style="fill:#e07656;stroke-width:1.33333337"
         transform="scale(0.26458333)" />
    </g>
  </g>
</svg>
